<svg xmlns="http://www.w3.org/2000/svg" version="1.1" xmlns:xlink="http://www.w3.org/1999/xlink" xmlns:svgjs="http://svgjs.com/svgjs" width="1920" height="1080" preserveAspectRatio="none" viewBox="0 0 1920 1080"><g mask="url(&quot;#SvgjsMask1140&quot;)" fill="none"><rect width="1920" height="1080" x="0" y="0" fill="rgba(23, 23, 28, 1)"></rect><path d="M77.82 529.5L142.78 567L142.78 642L77.82 679.5L12.87 642L12.87 567zM12.87 642L77.82 679.5L77.82 754.5L12.87 792L-52.08 754.5L-52.08 679.5zM12.87 1092L77.82 1129.5L77.82 1204.5L12.87 1242L-52.08 1204.5L-52.08 1129.5zM272.69 417L337.64 454.5L337.64 529.5L272.69 567L207.73 529.5L207.73 454.5zM272.69 642L337.64 679.5L337.64 754.5L272.69 792L207.73 754.5L207.73 679.5zM662.41 1092L727.36 1129.5L727.36 1204.5L662.41 1242L597.45 1204.5L597.45 1129.5zM792.31 -33L857.27 4.5L857.27 79.5L792.31 117L727.36 79.5L727.36 4.5zM1182.04 -33L1246.99 4.5L1246.99 79.5L1182.04 117L1117.08 79.5L1117.08 4.5zM1182.04 867L1246.99 904.5L1246.99 979.5L1182.04 1017L1117.08 979.5L1117.08 904.5zM1506.81 304.5L1571.76 342L1571.76 417L1506.81 454.5L1441.85 417L1441.85 342zM1506.81 979.5L1571.76 1017L1571.76 1092L1506.81 1129.5L1441.85 1092L1441.85 1017zM1441.85 1092L1506.81 1129.5L1506.81 1204.5L1441.85 1242L1376.9 1204.5L1376.9 1129.5zM1701.67 417L1766.62 454.5L1766.62 529.5L1701.67 567L1636.71 529.5L1636.71 454.5zM1831.57 192L1896.53 229.5L1896.53 304.5L1831.57 342L1766.62 304.5L1766.62 229.5z" stroke="rgba(224, 239, 198, 0.21)" stroke-width="2"></path><path d="M137.13 178.23L180.43 203.23L180.43 253.23L137.13 278.23L93.83 253.23L93.83 203.23zM137.13 328.23L180.43 353.23L180.43 403.23L137.13 428.23L93.83 403.23L93.83 353.23zM137.13 778.23L180.43 803.23L180.43 853.23L137.13 878.23L93.83 853.23L93.83 803.23zM137.13 928.23L180.43 953.23L180.43 1003.23L137.13 1028.23L93.83 1003.23L93.83 953.23zM223.73 178.23L267.04 203.23L267.04 253.23L223.73 278.23L180.43 253.23L180.43 203.23zM180.43 403.23L223.73 428.23L223.73 478.23L180.43 503.23L137.13 478.23L137.13 428.23zM223.73 778.23L267.04 803.23L267.04 853.23L223.73 878.23L180.43 853.23L180.43 803.23zM180.43 1003.23L223.73 1028.23L223.73 1078.23L180.43 1103.23L137.13 1078.23L137.13 1028.23zM310.34 328.23L353.64 353.23L353.64 403.23L310.34 428.23L267.04 403.23L267.04 353.23zM310.34 478.23L353.64 503.23L353.64 553.23L310.34 578.23L267.04 553.23L267.04 503.23zM310.34 778.23L353.64 803.23L353.64 853.23L310.34 878.23L267.04 853.23L267.04 803.23zM396.94 28.23L440.25 53.23L440.25 103.23L396.94 128.23L353.64 103.23L353.64 53.23zM396.94 178.23L440.25 203.23L440.25 253.23L396.94 278.23L353.64 253.23L353.64 203.23zM396.94 628.23L440.25 653.23L440.25 703.23L396.94 728.23L353.64 703.23L353.64 653.23zM440.25 253.23L483.55 278.23L483.55 328.23L440.25 353.23L396.94 328.23L396.94 278.23zM526.85 103.23L570.15 128.23L570.15 178.23L526.85 203.23L483.55 178.23L483.55 128.23zM570.15 778.23L613.46 803.23L613.46 853.23L570.15 878.23L526.85 853.23L526.85 803.23zM613.46 -46.77L656.76 -21.77L656.76 28.23L613.46 53.23L570.15 28.23L570.15 -21.77zM656.76 28.23L700.06 53.23L700.06 103.23L656.76 128.23L613.46 103.23L613.46 53.23zM613.46 403.23L656.76 428.23L656.76 478.23L613.46 503.23L570.15 478.23L570.15 428.23zM656.76 778.23L700.06 803.23L700.06 853.23L656.76 878.23L613.46 853.23L613.46 803.23zM613.46 1003.23L656.76 1028.23L656.76 1078.23L613.46 1103.23L570.15 1078.23L570.15 1028.23zM743.36 328.23L786.67 353.23L786.67 403.23L743.36 428.23L700.06 403.23L700.06 353.23zM700.06 403.23L743.36 428.23L743.36 478.23L700.06 503.23L656.76 478.23L656.76 428.23zM786.67 703.23L829.97 728.23L829.97 778.23L786.67 803.23L743.36 778.23L743.36 728.23zM1003.18 28.23L1046.48 53.23L1046.48 103.23L1003.18 128.23L959.88 103.23L959.88 53.23zM959.88 703.23L1003.18 728.23L1003.18 778.23L959.88 803.23L916.57 778.23L916.57 728.23zM1003.18 928.23L1046.48 953.23L1046.48 1003.23L1003.18 1028.23L959.88 1003.23L959.88 953.23zM1046.48 703.23L1089.78 728.23L1089.78 778.23L1046.48 803.23L1003.18 778.23L1003.18 728.23zM1089.78 928.23L1133.09 953.23L1133.09 1003.23L1089.78 1028.23L1046.48 1003.23L1046.48 953.23zM1046.48 1003.23L1089.78 1028.23L1089.78 1078.23L1046.48 1103.23L1003.18 1078.23L1003.18 1028.23zM1176.39 28.23L1219.69 53.23L1219.69 103.23L1176.39 128.23L1133.09 103.23L1133.09 53.23zM1176.39 178.23L1219.69 203.23L1219.69 253.23L1176.39 278.23L1133.09 253.23L1133.09 203.23zM1262.99 28.23L1306.3 53.23L1306.3 103.23L1262.99 128.23L1219.69 103.23L1219.69 53.23zM1219.69 403.23L1262.99 428.23L1262.99 478.23L1219.69 503.23L1176.39 478.23L1176.39 428.23zM1306.3 103.23L1349.6 128.23L1349.6 178.23L1306.3 203.23L1262.99 178.23L1262.99 128.23zM1306.3 553.23L1349.6 578.23L1349.6 628.23L1306.3 653.23L1262.99 628.23L1262.99 578.23zM1392.9 103.23L1436.2 128.23L1436.2 178.23L1392.9 203.23L1349.6 178.23L1349.6 128.23zM1436.2 178.23L1479.51 203.23L1479.51 253.23L1436.2 278.23L1392.9 253.23L1392.9 203.23zM1436.2 328.23L1479.51 353.23L1479.51 403.23L1436.2 428.23L1392.9 403.23L1392.9 353.23zM1392.9 553.23L1436.2 578.23L1436.2 628.23L1392.9 653.23L1349.6 628.23L1349.6 578.23zM1479.51 403.23L1522.81 428.23L1522.81 478.23L1479.51 503.23L1436.2 478.23L1436.2 428.23zM1522.81 628.23L1566.11 653.23L1566.11 703.23L1522.81 728.23L1479.51 703.23L1479.51 653.23zM1522.81 778.23L1566.11 803.23L1566.11 853.23L1522.81 878.23L1479.51 853.23L1479.51 803.23zM1479.51 1003.23L1522.81 1028.23L1522.81 1078.23L1479.51 1103.23L1436.2 1078.23L1436.2 1028.23zM1609.41 628.23L1652.72 653.23L1652.72 703.23L1609.41 728.23L1566.11 703.23L1566.11 653.23zM1696.02 28.23L1739.32 53.23L1739.32 103.23L1696.02 128.23L1652.72 103.23L1652.72 53.23zM1652.72 253.23L1696.02 278.23L1696.02 328.23L1652.72 353.23L1609.41 328.23L1609.41 278.23zM1652.72 403.23L1696.02 428.23L1696.02 478.23L1652.72 503.23L1609.41 478.23L1609.41 428.23zM1696.02 478.23L1739.32 503.23L1739.32 553.23L1696.02 578.23L1652.72 553.23L1652.72 503.23zM1739.32 103.23L1782.62 128.23L1782.62 178.23L1739.32 203.23L1696.02 178.23L1696.02 128.23zM1739.32 403.23L1782.62 428.23L1782.62 478.23L1739.32 503.23L1696.02 478.23L1696.02 428.23zM1739.32 1003.23L1782.62 1028.23L1782.62 1078.23L1739.32 1103.23L1696.02 1078.23L1696.02 1028.23zM1825.93 403.23L1869.23 428.23L1869.23 478.23L1825.93 503.23L1782.62 478.23L1782.62 428.23zM1825.93 1003.23L1869.23 1028.23L1869.23 1078.23L1825.93 1103.23L1782.62 1078.23L1782.62 1028.23z" stroke="rgba(190, 242, 100, 0.28)" stroke-width="2"></path><path d="M132.13 178.23 a5 5 0 1 0 10 0 a5 5 0 1 0 -10 0zM175.43 203.23 a5 5 0 1 0 10 0 a5 5 0 1 0 -10 0zM175.43 253.23 a5 5 0 1 0 10 0 a5 5 0 1 0 -10 0zM132.13 278.23 a5 5 0 1 0 10 0 a5 5 0 1 0 -10 0zM88.83 253.23 a5 5 0 1 0 10 0 a5 5 0 1 0 -10 0zM88.83 203.23 a5 5 0 1 0 10 0 a5 5 0 1 0 -10 0zM132.13 328.23 a5 5 0 1 0 10 0 a5 5 0 1 0 -10 0zM175.43 353.23 a5 5 0 1 0 10 0 a5 5 0 1 0 -10 0zM175.43 403.23 a5 5 0 1 0 10 0 a5 5 0 1 0 -10 0zM132.13 428.23 a5 5 0 1 0 10 0 a5 5 0 1 0 -10 0zM88.83 403.23 a5 5 0 1 0 10 0 a5 5 0 1 0 -10 0zM88.83 353.23 a5 5 0 1 0 10 0 a5 5 0 1 0 -10 0zM132.13 778.23 a5 5 0 1 0 10 0 a5 5 0 1 0 -10 0zM175.43 803.23 a5 5 0 1 0 10 0 a5 5 0 1 0 -10 0zM175.43 853.23 a5 5 0 1 0 10 0 a5 5 0 1 0 -10 0zM132.13 878.23 a5 5 0 1 0 10 0 a5 5 0 1 0 -10 0zM88.83 853.23 a5 5 0 1 0 10 0 a5 5 0 1 0 -10 0zM88.83 803.23 a5 5 0 1 0 10 0 a5 5 0 1 0 -10 0zM132.13 928.23 a5 5 0 1 0 10 0 a5 5 0 1 0 -10 0zM175.43 953.23 a5 5 0 1 0 10 0 a5 5 0 1 0 -10 0zM175.43 1003.23 a5 5 0 1 0 10 0 a5 5 0 1 0 -10 0zM132.13 1028.23 a5 5 0 1 0 10 0 a5 5 0 1 0 -10 0zM88.83 1003.23 a5 5 0 1 0 10 0 a5 5 0 1 0 -10 0zM88.83 953.23 a5 5 0 1 0 10 0 a5 5 0 1 0 -10 0zM218.73 178.23 a5 5 0 1 0 10 0 a5 5 0 1 0 -10 0zM262.04 203.23 a5 5 0 1 0 10 0 a5 5 0 1 0 -10 0zM262.04 253.23 a5 5 0 1 0 10 0 a5 5 0 1 0 -10 0zM218.73 278.23 a5 5 0 1 0 10 0 a5 5 0 1 0 -10 0zM218.73 428.23 a5 5 0 1 0 10 0 a5 5 0 1 0 -10 0zM218.73 478.23 a5 5 0 1 0 10 0 a5 5 0 1 0 -10 0zM175.43 503.23 a5 5 0 1 0 10 0 a5 5 0 1 0 -10 0zM132.13 478.23 a5 5 0 1 0 10 0 a5 5 0 1 0 -10 0zM218.73 778.23 a5 5 0 1 0 10 0 a5 5 0 1 0 -10 0zM262.04 803.23 a5 5 0 1 0 10 0 a5 5 0 1 0 -10 0zM262.04 853.23 a5 5 0 1 0 10 0 a5 5 0 1 0 -10 0zM218.73 878.23 a5 5 0 1 0 10 0 a5 5 0 1 0 -10 0zM218.73 1028.23 a5 5 0 1 0 10 0 a5 5 0 1 0 -10 0zM218.73 1078.23 a5 5 0 1 0 10 0 a5 5 0 1 0 -10 0zM175.43 1103.23 a5 5 0 1 0 10 0 a5 5 0 1 0 -10 0zM132.13 1078.23 a5 5 0 1 0 10 0 a5 5 0 1 0 -10 0zM305.34 328.23 a5 5 0 1 0 10 0 a5 5 0 1 0 -10 0zM348.64 353.23 a5 5 0 1 0 10 0 a5 5 0 1 0 -10 0zM348.64 403.23 a5 5 0 1 0 10 0 a5 5 0 1 0 -10 0zM305.34 428.23 a5 5 0 1 0 10 0 a5 5 0 1 0 -10 0zM262.04 403.23 a5 5 0 1 0 10 0 a5 5 0 1 0 -10 0zM262.04 353.23 a5 5 0 1 0 10 0 a5 5 0 1 0 -10 0zM305.34 478.23 a5 5 0 1 0 10 0 a5 5 0 1 0 -10 0zM348.64 503.23 a5 5 0 1 0 10 0 a5 5 0 1 0 -10 0zM348.64 553.23 a5 5 0 1 0 10 0 a5 5 0 1 0 -10 0zM305.34 578.23 a5 5 0 1 0 10 0 a5 5 0 1 0 -10 0zM262.04 553.23 a5 5 0 1 0 10 0 a5 5 0 1 0 -10 0zM262.04 503.23 a5 5 0 1 0 10 0 a5 5 0 1 0 -10 0zM305.34 778.23 a5 5 0 1 0 10 0 a5 5 0 1 0 -10 0zM348.64 803.23 a5 5 0 1 0 10 0 a5 5 0 1 0 -10 0zM348.64 853.23 a5 5 0 1 0 10 0 a5 5 0 1 0 -10 0zM305.34 878.23 a5 5 0 1 0 10 0 a5 5 0 1 0 -10 0zM391.94 28.23 a5 5 0 1 0 10 0 a5 5 0 1 0 -10 0zM435.25 53.23 a5 5 0 1 0 10 0 a5 5 0 1 0 -10 0zM435.25 103.23 a5 5 0 1 0 10 0 a5 5 0 1 0 -10 0zM391.94 128.23 a5 5 0 1 0 10 0 a5 5 0 1 0 -10 0zM348.64 103.23 a5 5 0 1 0 10 0 a5 5 0 1 0 -10 0zM348.64 53.23 a5 5 0 1 0 10 0 a5 5 0 1 0 -10 0zM391.94 178.23 a5 5 0 1 0 10 0 a5 5 0 1 0 -10 0zM435.25 203.23 a5 5 0 1 0 10 0 a5 5 0 1 0 -10 0zM435.25 253.23 a5 5 0 1 0 10 0 a5 5 0 1 0 -10 0zM391.94 278.23 a5 5 0 1 0 10 0 a5 5 0 1 0 -10 0zM348.64 253.23 a5 5 0 1 0 10 0 a5 5 0 1 0 -10 0zM348.64 203.23 a5 5 0 1 0 10 0 a5 5 0 1 0 -10 0zM391.94 628.23 a5 5 0 1 0 10 0 a5 5 0 1 0 -10 0zM435.25 653.23 a5 5 0 1 0 10 0 a5 5 0 1 0 -10 0zM435.25 703.23 a5 5 0 1 0 10 0 a5 5 0 1 0 -10 0zM391.94 728.23 a5 5 0 1 0 10 0 a5 5 0 1 0 -10 0zM348.64 703.23 a5 5 0 1 0 10 0 a5 5 0 1 0 -10 0zM348.64 653.23 a5 5 0 1 0 10 0 a5 5 0 1 0 -10 0zM478.55 278.23 a5 5 0 1 0 10 0 a5 5 0 1 0 -10 0zM478.55 328.23 a5 5 0 1 0 10 0 a5 5 0 1 0 -10 0zM435.25 353.23 a5 5 0 1 0 10 0 a5 5 0 1 0 -10 0zM391.94 328.23 a5 5 0 1 0 10 0 a5 5 0 1 0 -10 0zM521.85 103.23 a5 5 0 1 0 10 0 a5 5 0 1 0 -10 0zM565.15 128.23 a5 5 0 1 0 10 0 a5 5 0 1 0 -10 0zM565.15 178.23 a5 5 0 1 0 10 0 a5 5 0 1 0 -10 0zM521.85 203.23 a5 5 0 1 0 10 0 a5 5 0 1 0 -10 0zM478.55 178.23 a5 5 0 1 0 10 0 a5 5 0 1 0 -10 0zM478.55 128.23 a5 5 0 1 0 10 0 a5 5 0 1 0 -10 0zM565.15 778.23 a5 5 0 1 0 10 0 a5 5 0 1 0 -10 0zM608.46 803.23 a5 5 0 1 0 10 0 a5 5 0 1 0 -10 0zM608.46 853.23 a5 5 0 1 0 10 0 a5 5 0 1 0 -10 0zM565.15 878.23 a5 5 0 1 0 10 0 a5 5 0 1 0 -10 0zM521.85 853.23 a5 5 0 1 0 10 0 a5 5 0 1 0 -10 0zM521.85 803.23 a5 5 0 1 0 10 0 a5 5 0 1 0 -10 0zM608.46 -46.77 a5 5 0 1 0 10 0 a5 5 0 1 0 -10 0zM651.76 -21.77 a5 5 0 1 0 10 0 a5 5 0 1 0 -10 0zM651.76 28.23 a5 5 0 1 0 10 0 a5 5 0 1 0 -10 0zM608.46 53.23 a5 5 0 1 0 10 0 a5 5 0 1 0 -10 0zM565.15 28.23 a5 5 0 1 0 10 0 a5 5 0 1 0 -10 0zM565.15 -21.77 a5 5 0 1 0 10 0 a5 5 0 1 0 -10 0zM695.06 53.23 a5 5 0 1 0 10 0 a5 5 0 1 0 -10 0zM695.06 103.23 a5 5 0 1 0 10 0 a5 5 0 1 0 -10 0zM651.76 128.23 a5 5 0 1 0 10 0 a5 5 0 1 0 -10 0zM608.46 103.23 a5 5 0 1 0 10 0 a5 5 0 1 0 -10 0zM608.46 403.23 a5 5 0 1 0 10 0 a5 5 0 1 0 -10 0zM651.76 428.23 a5 5 0 1 0 10 0 a5 5 0 1 0 -10 0zM651.76 478.23 a5 5 0 1 0 10 0 a5 5 0 1 0 -10 0zM608.46 503.23 a5 5 0 1 0 10 0 a5 5 0 1 0 -10 0zM565.15 478.23 a5 5 0 1 0 10 0 a5 5 0 1 0 -10 0zM565.15 428.23 a5 5 0 1 0 10 0 a5 5 0 1 0 -10 0zM651.76 778.23 a5 5 0 1 0 10 0 a5 5 0 1 0 -10 0zM695.06 803.23 a5 5 0 1 0 10 0 a5 5 0 1 0 -10 0zM695.06 853.23 a5 5 0 1 0 10 0 a5 5 0 1 0 -10 0zM651.76 878.23 a5 5 0 1 0 10 0 a5 5 0 1 0 -10 0zM608.46 1003.23 a5 5 0 1 0 10 0 a5 5 0 1 0 -10 0zM651.76 1028.23 a5 5 0 1 0 10 0 a5 5 0 1 0 -10 0zM651.76 1078.23 a5 5 0 1 0 10 0 a5 5 0 1 0 -10 0zM608.46 1103.23 a5 5 0 1 0 10 0 a5 5 0 1 0 -10 0zM565.15 1078.23 a5 5 0 1 0 10 0 a5 5 0 1 0 -10 0zM565.15 1028.23 a5 5 0 1 0 10 0 a5 5 0 1 0 -10 0zM738.36 328.23 a5 5 0 1 0 10 0 a5 5 0 1 0 -10 0zM781.67 353.23 a5 5 0 1 0 10 0 a5 5 0 1 0 -10 0zM781.67 403.23 a5 5 0 1 0 10 0 a5 5 0 1 0 -10 0zM738.36 428.23 a5 5 0 1 0 10 0 a5 5 0 1 0 -10 0zM695.06 403.23 a5 5 0 1 0 10 0 a5 5 0 1 0 -10 0zM695.06 353.23 a5 5 0 1 0 10 0 a5 5 0 1 0 -10 0zM738.36 478.23 a5 5 0 1 0 10 0 a5 5 0 1 0 -10 0zM695.06 503.23 a5 5 0 1 0 10 0 a5 5 0 1 0 -10 0zM781.67 703.23 a5 5 0 1 0 10 0 a5 5 0 1 0 -10 0zM824.97 728.23 a5 5 0 1 0 10 0 a5 5 0 1 0 -10 0zM824.97 778.23 a5 5 0 1 0 10 0 a5 5 0 1 0 -10 0zM781.67 803.23 a5 5 0 1 0 10 0 a5 5 0 1 0 -10 0zM738.36 778.23 a5 5 0 1 0 10 0 a5 5 0 1 0 -10 0zM738.36 728.23 a5 5 0 1 0 10 0 a5 5 0 1 0 -10 0zM998.18 28.23 a5 5 0 1 0 10 0 a5 5 0 1 0 -10 0zM1041.48 53.23 a5 5 0 1 0 10 0 a5 5 0 1 0 -10 0zM1041.48 103.23 a5 5 0 1 0 10 0 a5 5 0 1 0 -10 0zM998.18 128.23 a5 5 0 1 0 10 0 a5 5 0 1 0 -10 0zM954.88 103.23 a5 5 0 1 0 10 0 a5 5 0 1 0 -10 0zM954.88 53.23 a5 5 0 1 0 10 0 a5 5 0 1 0 -10 0zM954.88 703.23 a5 5 0 1 0 10 0 a5 5 0 1 0 -10 0zM998.18 728.23 a5 5 0 1 0 10 0 a5 5 0 1 0 -10 0zM998.18 778.23 a5 5 0 1 0 10 0 a5 5 0 1 0 -10 0zM954.88 803.23 a5 5 0 1 0 10 0 a5 5 0 1 0 -10 0zM911.57 778.23 a5 5 0 1 0 10 0 a5 5 0 1 0 -10 0zM911.57 728.23 a5 5 0 1 0 10 0 a5 5 0 1 0 -10 0zM998.18 928.23 a5 5 0 1 0 10 0 a5 5 0 1 0 -10 0zM1041.48 953.23 a5 5 0 1 0 10 0 a5 5 0 1 0 -10 0zM1041.48 1003.23 a5 5 0 1 0 10 0 a5 5 0 1 0 -10 0zM998.18 1028.23 a5 5 0 1 0 10 0 a5 5 0 1 0 -10 0zM954.88 1003.23 a5 5 0 1 0 10 0 a5 5 0 1 0 -10 0zM954.88 953.23 a5 5 0 1 0 10 0 a5 5 0 1 0 -10 0zM1041.48 703.23 a5 5 0 1 0 10 0 a5 5 0 1 0 -10 0zM1084.78 728.23 a5 5 0 1 0 10 0 a5 5 0 1 0 -10 0zM1084.78 778.23 a5 5 0 1 0 10 0 a5 5 0 1 0 -10 0zM1041.48 803.23 a5 5 0 1 0 10 0 a5 5 0 1 0 -10 0zM1084.78 928.23 a5 5 0 1 0 10 0 a5 5 0 1 0 -10 0zM1128.09 953.23 a5 5 0 1 0 10 0 a5 5 0 1 0 -10 0zM1128.09 1003.23 a5 5 0 1 0 10 0 a5 5 0 1 0 -10 0zM1084.78 1028.23 a5 5 0 1 0 10 0 a5 5 0 1 0 -10 0zM1084.78 1078.23 a5 5 0 1 0 10 0 a5 5 0 1 0 -10 0zM1041.48 1103.23 a5 5 0 1 0 10 0 a5 5 0 1 0 -10 0zM998.18 1078.23 a5 5 0 1 0 10 0 a5 5 0 1 0 -10 0zM1171.39 28.23 a5 5 0 1 0 10 0 a5 5 0 1 0 -10 0zM1214.69 53.23 a5 5 0 1 0 10 0 a5 5 0 1 0 -10 0zM1214.69 103.23 a5 5 0 1 0 10 0 a5 5 0 1 0 -10 0zM1171.39 128.23 a5 5 0 1 0 10 0 a5 5 0 1 0 -10 0zM1128.09 103.23 a5 5 0 1 0 10 0 a5 5 0 1 0 -10 0zM1128.09 53.23 a5 5 0 1 0 10 0 a5 5 0 1 0 -10 0zM1171.39 178.23 a5 5 0 1 0 10 0 a5 5 0 1 0 -10 0zM1214.69 203.23 a5 5 0 1 0 10 0 a5 5 0 1 0 -10 0zM1214.69 253.23 a5 5 0 1 0 10 0 a5 5 0 1 0 -10 0zM1171.39 278.23 a5 5 0 1 0 10 0 a5 5 0 1 0 -10 0zM1128.09 253.23 a5 5 0 1 0 10 0 a5 5 0 1 0 -10 0zM1128.09 203.23 a5 5 0 1 0 10 0 a5 5 0 1 0 -10 0zM1257.99 28.23 a5 5 0 1 0 10 0 a5 5 0 1 0 -10 0zM1301.3 53.23 a5 5 0 1 0 10 0 a5 5 0 1 0 -10 0zM1301.3 103.23 a5 5 0 1 0 10 0 a5 5 0 1 0 -10 0zM1257.99 128.23 a5 5 0 1 0 10 0 a5 5 0 1 0 -10 0zM1214.69 403.23 a5 5 0 1 0 10 0 a5 5 0 1 0 -10 0zM1257.99 428.23 a5 5 0 1 0 10 0 a5 5 0 1 0 -10 0zM1257.99 478.23 a5 5 0 1 0 10 0 a5 5 0 1 0 -10 0zM1214.69 503.23 a5 5 0 1 0 10 0 a5 5 0 1 0 -10 0zM1171.39 478.23 a5 5 0 1 0 10 0 a5 5 0 1 0 -10 0zM1171.39 428.23 a5 5 0 1 0 10 0 a5 5 0 1 0 -10 0zM1344.6 128.23 a5 5 0 1 0 10 0 a5 5 0 1 0 -10 0zM1344.6 178.23 a5 5 0 1 0 10 0 a5 5 0 1 0 -10 0zM1301.3 203.23 a5 5 0 1 0 10 0 a5 5 0 1 0 -10 0zM1257.99 178.23 a5 5 0 1 0 10 0 a5 5 0 1 0 -10 0zM1301.3 553.23 a5 5 0 1 0 10 0 a5 5 0 1 0 -10 0zM1344.6 578.23 a5 5 0 1 0 10 0 a5 5 0 1 0 -10 0zM1344.6 628.23 a5 5 0 1 0 10 0 a5 5 0 1 0 -10 0zM1301.3 653.23 a5 5 0 1 0 10 0 a5 5 0 1 0 -10 0zM1257.99 628.23 a5 5 0 1 0 10 0 a5 5 0 1 0 -10 0zM1257.99 578.23 a5 5 0 1 0 10 0 a5 5 0 1 0 -10 0zM1387.9 103.23 a5 5 0 1 0 10 0 a5 5 0 1 0 -10 0zM1431.2 128.23 a5 5 0 1 0 10 0 a5 5 0 1 0 -10 0zM1431.2 178.23 a5 5 0 1 0 10 0 a5 5 0 1 0 -10 0zM1387.9 203.23 a5 5 0 1 0 10 0 a5 5 0 1 0 -10 0zM1474.51 203.23 a5 5 0 1 0 10 0 a5 5 0 1 0 -10 0zM1474.51 253.23 a5 5 0 1 0 10 0 a5 5 0 1 0 -10 0zM1431.2 278.23 a5 5 0 1 0 10 0 a5 5 0 1 0 -10 0zM1387.9 253.23 a5 5 0 1 0 10 0 a5 5 0 1 0 -10 0zM1431.2 328.23 a5 5 0 1 0 10 0 a5 5 0 1 0 -10 0zM1474.51 353.23 a5 5 0 1 0 10 0 a5 5 0 1 0 -10 0zM1474.51 403.23 a5 5 0 1 0 10 0 a5 5 0 1 0 -10 0zM1431.2 428.23 a5 5 0 1 0 10 0 a5 5 0 1 0 -10 0zM1387.9 403.23 a5 5 0 1 0 10 0 a5 5 0 1 0 -10 0zM1387.9 353.23 a5 5 0 1 0 10 0 a5 5 0 1 0 -10 0zM1387.9 553.23 a5 5 0 1 0 10 0 a5 5 0 1 0 -10 0zM1431.2 578.23 a5 5 0 1 0 10 0 a5 5 0 1 0 -10 0zM1431.2 628.23 a5 5 0 1 0 10 0 a5 5 0 1 0 -10 0zM1387.9 653.23 a5 5 0 1 0 10 0 a5 5 0 1 0 -10 0zM1517.81 428.23 a5 5 0 1 0 10 0 a5 5 0 1 0 -10 0zM1517.81 478.23 a5 5 0 1 0 10 0 a5 5 0 1 0 -10 0zM1474.51 503.23 a5 5 0 1 0 10 0 a5 5 0 1 0 -10 0zM1431.2 478.23 a5 5 0 1 0 10 0 a5 5 0 1 0 -10 0zM1517.81 628.23 a5 5 0 1 0 10 0 a5 5 0 1 0 -10 0zM1561.11 653.23 a5 5 0 1 0 10 0 a5 5 0 1 0 -10 0zM1561.11 703.23 a5 5 0 1 0 10 0 a5 5 0 1 0 -10 0zM1517.81 728.23 a5 5 0 1 0 10 0 a5 5 0 1 0 -10 0zM1474.51 703.23 a5 5 0 1 0 10 0 a5 5 0 1 0 -10 0zM1474.51 653.23 a5 5 0 1 0 10 0 a5 5 0 1 0 -10 0zM1517.81 778.23 a5 5 0 1 0 10 0 a5 5 0 1 0 -10 0zM1561.11 803.23 a5 5 0 1 0 10 0 a5 5 0 1 0 -10 0zM1561.11 853.23 a5 5 0 1 0 10 0 a5 5 0 1 0 -10 0zM1517.81 878.23 a5 5 0 1 0 10 0 a5 5 0 1 0 -10 0zM1474.51 853.23 a5 5 0 1 0 10 0 a5 5 0 1 0 -10 0zM1474.51 803.23 a5 5 0 1 0 10 0 a5 5 0 1 0 -10 0zM1474.51 1003.23 a5 5 0 1 0 10 0 a5 5 0 1 0 -10 0zM1517.81 1028.23 a5 5 0 1 0 10 0 a5 5 0 1 0 -10 0zM1517.81 1078.23 a5 5 0 1 0 10 0 a5 5 0 1 0 -10 0zM1474.51 1103.23 a5 5 0 1 0 10 0 a5 5 0 1 0 -10 0zM1431.2 1078.23 a5 5 0 1 0 10 0 a5 5 0 1 0 -10 0zM1431.2 1028.23 a5 5 0 1 0 10 0 a5 5 0 1 0 -10 0zM1604.41 628.23 a5 5 0 1 0 10 0 a5 5 0 1 0 -10 0zM1647.72 653.23 a5 5 0 1 0 10 0 a5 5 0 1 0 -10 0zM1647.72 703.23 a5 5 0 1 0 10 0 a5 5 0 1 0 -10 0zM1604.41 728.23 a5 5 0 1 0 10 0 a5 5 0 1 0 -10 0zM1691.02 28.23 a5 5 0 1 0 10 0 a5 5 0 1 0 -10 0zM1734.32 53.23 a5 5 0 1 0 10 0 a5 5 0 1 0 -10 0zM1734.32 103.23 a5 5 0 1 0 10 0 a5 5 0 1 0 -10 0zM1691.02 128.23 a5 5 0 1 0 10 0 a5 5 0 1 0 -10 0zM1647.72 103.23 a5 5 0 1 0 10 0 a5 5 0 1 0 -10 0zM1647.72 53.23 a5 5 0 1 0 10 0 a5 5 0 1 0 -10 0zM1647.72 253.23 a5 5 0 1 0 10 0 a5 5 0 1 0 -10 0zM1691.02 278.23 a5 5 0 1 0 10 0 a5 5 0 1 0 -10 0zM1691.02 328.23 a5 5 0 1 0 10 0 a5 5 0 1 0 -10 0zM1647.72 353.23 a5 5 0 1 0 10 0 a5 5 0 1 0 -10 0zM1604.41 328.23 a5 5 0 1 0 10 0 a5 5 0 1 0 -10 0zM1604.41 278.23 a5 5 0 1 0 10 0 a5 5 0 1 0 -10 0zM1647.72 403.23 a5 5 0 1 0 10 0 a5 5 0 1 0 -10 0zM1691.02 428.23 a5 5 0 1 0 10 0 a5 5 0 1 0 -10 0zM1691.02 478.23 a5 5 0 1 0 10 0 a5 5 0 1 0 -10 0zM1647.72 503.23 a5 5 0 1 0 10 0 a5 5 0 1 0 -10 0zM1604.41 478.23 a5 5 0 1 0 10 0 a5 5 0 1 0 -10 0zM1604.41 428.23 a5 5 0 1 0 10 0 a5 5 0 1 0 -10 0zM1734.32 503.23 a5 5 0 1 0 10 0 a5 5 0 1 0 -10 0zM1734.32 553.23 a5 5 0 1 0 10 0 a5 5 0 1 0 -10 0zM1691.02 578.23 a5 5 0 1 0 10 0 a5 5 0 1 0 -10 0zM1647.72 553.23 a5 5 0 1 0 10 0 a5 5 0 1 0 -10 0zM1777.62 128.23 a5 5 0 1 0 10 0 a5 5 0 1 0 -10 0zM1777.62 178.23 a5 5 0 1 0 10 0 a5 5 0 1 0 -10 0zM1734.32 203.23 a5 5 0 1 0 10 0 a5 5 0 1 0 -10 0zM1691.02 178.23 a5 5 0 1 0 10 0 a5 5 0 1 0 -10 0zM1734.32 403.23 a5 5 0 1 0 10 0 a5 5 0 1 0 -10 0zM1777.62 428.23 a5 5 0 1 0 10 0 a5 5 0 1 0 -10 0zM1777.62 478.23 a5 5 0 1 0 10 0 a5 5 0 1 0 -10 0zM1734.32 1003.23 a5 5 0 1 0 10 0 a5 5 0 1 0 -10 0zM1777.62 1028.23 a5 5 0 1 0 10 0 a5 5 0 1 0 -10 0zM1777.62 1078.23 a5 5 0 1 0 10 0 a5 5 0 1 0 -10 0zM1734.32 1103.23 a5 5 0 1 0 10 0 a5 5 0 1 0 -10 0zM1691.02 1078.23 a5 5 0 1 0 10 0 a5 5 0 1 0 -10 0zM1691.02 1028.23 a5 5 0 1 0 10 0 a5 5 0 1 0 -10 0zM1820.93 403.23 a5 5 0 1 0 10 0 a5 5 0 1 0 -10 0zM1864.23 428.23 a5 5 0 1 0 10 0 a5 5 0 1 0 -10 0zM1864.23 478.23 a5 5 0 1 0 10 0 a5 5 0 1 0 -10 0zM1820.93 503.23 a5 5 0 1 0 10 0 a5 5 0 1 0 -10 0zM1820.93 1003.23 a5 5 0 1 0 10 0 a5 5 0 1 0 -10 0zM1864.23 1028.23 a5 5 0 1 0 10 0 a5 5 0 1 0 -10 0zM1864.23 1078.23 a5 5 0 1 0 10 0 a5 5 0 1 0 -10 0zM1820.93 1103.23 a5 5 0 1 0 10 0 a5 5 0 1 0 -10 0z" fill="rgba(190, 242, 100, 0.28)"></path></g><defs><mask id="SvgjsMask1140"><rect width="1920" height="1080" fill="#ffffff"></rect></mask></defs></svg>